HIERARCHY
ROOT RootJoint
{
    OFFSET   0.000000   0.000000   0.000000
    CHANNELS 6 Xposition Yposition Zposition Xrotation Yrotation Zrotation
    JOINT pelvis_lowerback
    {
        OFFSET   0.000000   0.093605   0.000000
        CHANNELS 3 Xrotation Yrotation Zrotation
        JOINT lowerback_torso
        {
            OFFSET   0.000000   0.100000   0.000000
            CHANNELS 3 Xrotation Yrotation Zrotation
            JOINT torso_head
            {
                OFFSET   0.000000   0.282350   0.000000
                CHANNELS 3 Xrotation Yrotation Zrotation
                End Site
                {
                    OFFSET   0.000000   0.192650   0.000000
                }
            }
            JOINT rTorso_Clavicle
            {
                OFFSET  -0.001000   0.157500   0.000000
                CHANNELS 3 Xrotation Yrotation Zrotation
                JOINT rShoulder
                {
                    OFFSET  -0.117647   0.000000   0.000000
                    CHANNELS 3 Xrotation Yrotation Zrotation
                    JOINT rElbow
                    {
                        OFFSET  -0.245000   0.000000   0.000000
                        CHANNELS 3 Xrotation Yrotation Zrotation
                        JOINT rWrist
                        {
                            OFFSET  -0.240000   0.000000   0.000000
                            CHANNELS 3 Xrotation Yrotation Zrotation
                            End Site
                            {
                                OFFSET  -0.116353  -0.002500   0.000000
                            }
                        }
                    }
                }
            }
            JOINT lTorso_Clavicle
            {
                OFFSET   0.001000   0.157500   0.000000
                CHANNELS 3 Xrotation Yrotation Zrotation
                JOINT lShoulder
                {
                    OFFSET   0.117647   0.000000   0.000000
                    CHANNELS 3 Xrotation Yrotation Zrotation
                    JOINT lElbow
                    {
                        OFFSET   0.245000   0.000000   0.000000
                        CHANNELS 3 Xrotation Yrotation Zrotation
                        JOINT lWrist
                        {
                            OFFSET   0.240000   0.000000   0.000000
                            CHANNELS 3 Xrotation Yrotation Zrotation
                            End Site
                            {
                                OFFSET   0.116353  -0.002500   0.000000
                            }
                        }
                    }
                }
            }
        }
    }
    JOINT rHip
    {
        OFFSET  -0.100000  -0.051395   0.000000
        CHANNELS 3 Xrotation Yrotation Zrotation
        JOINT rKnee
        {
            OFFSET   0.000000  -0.410000   0.000000
            CHANNELS 3 Xrotation Yrotation Zrotation
            JOINT rAnkle
            {
                OFFSET   0.000000  -0.390000   0.000000
                CHANNELS 3 Xrotation Yrotation Zrotation
                JOINT rToeJoint
                {
                    OFFSET   0.000000  -0.050000   0.130000
                    CHANNELS 3 Xrotation Yrotation Zrotation
                    End Site
                    {
                        OFFSET  -0.010000   0.002000   0.060000
                    }
                }
            }
        }
    }
    JOINT lHip
    {
        OFFSET   0.100000  -0.051395   0.000000
        CHANNELS 3 Xrotation Yrotation Zrotation
        JOINT lKnee
        {
            OFFSET   0.000000  -0.410000   0.000000
            CHANNELS 3 Xrotation Yrotation Zrotation
            JOINT lAnkle
            {
                OFFSET   0.000000  -0.390000   0.000000
                CHANNELS 3 Xrotation Yrotation Zrotation
                JOINT lToeJoint
                {
                    OFFSET   0.000000  -0.050000   0.130000
                    CHANNELS 3 Xrotation Yrotation Zrotation
                    End Site
                    {
                        OFFSET   0.010000   0.002000   0.060000
                    }
                }
            }
        }
    }
}
MOTION
Frames: 7
Frame Time:   0.008333
 -2.383545   0.909392   4.003966  14.550037   2.530421  -0.386430   0.927068  -0.417394   1.223812  -4.730425  -0.402671   1.627689  -0.011838   2.113631   1.004581  -8.633102 -10.310811 -10.154377 -30.905605   0.859846  27.143380 179.999992  46.136300 179.999273  -1.278781   9.957262   3.811090  -7.161733   9.247044   8.686779 -21.127411   2.792536 -36.898460 -179.999993 -46.412715 179.999980   1.431150 -10.200994  -5.230483 -16.039728  -4.272275  -9.687697   6.727566   0.000006   0.000017  -5.063308  -3.057620   4.648551   0.253667   0.000001  -0.000000 -11.381130  -1.593437   8.856146   0.805445   0.000052   0.000144  -4.723853   2.051091  -0.254580   1.088013   0.000058  -0.000217
 -2.383599   0.909363   4.003935  14.613743   2.462067  -0.373067   0.946996  -0.418339   1.231217  -4.762660  -0.391989   1.598650  -0.046862   2.110101   0.998695  -8.713263 -10.287916 -10.222904 -31.168217   0.859389  27.062308 -179.999992  46.117211 179.999358  -1.248808   9.956579   3.664139  -7.190565   9.239552   8.698831 -21.258707   2.853110 -36.829762 -179.999994 -46.411528 179.999985   1.457035 -10.190764  -5.037995 -16.148616  -4.217307  -9.686894   6.782388   0.000003   0.000003  -5.072947  -3.035072   4.665905   0.249277   0.000002  -0.000000 -11.424485  -1.568310   8.863809   0.782071   0.000044   0.000125  -4.731693   2.050604  -0.260485   1.110933   0.000046  -0.000184
 -2.383642   0.909334   4.003875  14.672768   2.393293  -0.357893   0.974237  -0.417890   1.244960  -4.787132  -0.378645   1.569563  -0.078485   2.106069   0.994528  -8.794675 -10.261822 -10.292257 -31.420583   0.860439  26.985254 -179.999984  46.102790 179.999443  -1.217157   9.957124   3.473297  -7.214742   9.235757   8.699517 -21.378141   2.913384 -36.770146 -179.999994 -46.410525 179.999989   1.481961 -10.181149  -4.840542 -16.257017  -4.161654  -9.688558   6.841544   0.000001  -0.000009  -5.082641  -3.011594   4.685393   0.561980  -0.000053   0.000001 -11.467397  -1.546196   8.869597   0.764557   0.000037   0.000108  -4.739140   2.049649  -0.266404   1.129177   0.000037  -0.000155
 -2.383683   0.909306   4.003800  14.728634   2.326860  -0.343213   1.004876  -0.416129   1.262182  -4.805542  -0.364660   1.543127  -0.107040   2.102247   0.991616  -8.871702 -10.236051 -10.358607 -31.657394   0.862356  26.912939 -179.999980  46.089804 179.999520  -1.186807   9.958265   3.277778  -7.235709   9.233356   8.695620 -21.487851   2.970760 -36.716497 -179.999995 -46.409556 179.999992   1.505136 -10.172484  -4.652269 -16.361462  -4.108070  -9.689860   6.898084  -0.000000  -0.000018  -5.090873  -2.988643   4.702258   0.494412  -0.000032   0.000000 -11.509323  -1.526374   8.875347   0.748757   0.000031   0.000093  -4.744572   2.048540  -0.271734   1.143868   0.000030  -0.000131
 -2.383724   0.909280   4.003716  14.781899   2.263861  -0.329378   1.037491  -0.413569   1.281363  -4.819325  -0.350825   1.519911  -0.133079   2.098689   0.989426  -8.943511 -10.211429 -10.420522 -31.878473   0.864561  26.845508 -179.999978  46.077743 179.999588  -1.157956   9.959767   3.088686  -7.254459   9.231552   8.690063 -21.589391   3.024700 -36.667210 -179.999996 -46.408613 179.999994   1.526736 -10.164672  -4.474171 -16.461385  -4.057192  -9.690692   6.951047  -0.000002  -0.000024  -5.097378  -2.966868   4.718233   0.439715  -0.000018   0.000000 -11.550313  -1.508348   8.881108   0.733847   0.000026   0.000081  -4.747975   2.047523  -0.276332   1.155774   0.000024  -0.000110
 -2.383765   0.909256   4.003627  14.832782   2.204600  -0.316477   1.071240  -0.410484   1.301870  -4.829460  -0.337435   1.499906  -0.156938   2.095382   0.987682  -9.010170 -10.188144 -10.477723 -32.084553   0.866798  26.782814 -179.999978  46.066476 179.999646  -1.130559   9.961497   2.908383  -7.271526   9.230020   8.684026 -21.683735   3.075160 -36.621514 -179.999997 -46.407695 179.999996   1.546919 -10.157572  -4.305336 -16.556661  -4.009195  -9.691043   7.000506  -0.000002  -0.000028  -5.102516  -2.946461   4.733464   0.395310  -0.000008   0.000000 -11.590254  -1.491819   8.886857   0.719593   0.000022   0.000070  -4.749680   2.046695  -0.280225   1.165469   0.000019  -0.000092
 -2.383806   0.909233   4.003536  14.881407   2.149079  -0.304495   1.105511  -0.407022   1.323373  -4.836670  -0.324594   1.482931  -0.178864   2.092310   0.986257  -9.071971 -10.166205 -10.530371 -32.276565   0.868964  26.724592 -179.999978  46.055936 179.999697  -1.104541   9.963367   2.736992  -7.287207   9.228621   8.677997 -21.771563   3.122264 -36.578977 -179.999997 -46.406798 179.999997   1.565807 -10.151064  -4.144865 -16.647285  -3.964067  -9.690972   7.046683  -0.000003  -0.000030  -5.106636  -2.927454   4.747989   0.359162  -0.000001  -0.000000 -11.629001  -1.476580   8.892543   0.705908   0.000018   0.000061  -4.750061   2.046098  -0.283486   1.173399   0.000015  -0.000076
